<svg width="17" height="12" viewBox="0 0 17 12" fill="none" xmlns="http://www.w3.org/2000/svg">
<path d="M16.25 1.375V10.125C16.25 10.3571 16.1578 10.5796 15.9937 10.7437C15.8296 10.9078 15.6071 11 15.375 11H1.375C1.14294 11 0.920376 10.9078 0.756282 10.7437C0.592187 10.5796 0.5 10.3571 0.5 10.125V1.375M16.25 1.375C16.25 1.14294 16.1578 0.920376 15.9937 0.756282C15.8296 0.592187 15.6071 0.5 15.375 0.5H1.375C1.14294 0.5 0.920376 0.592187 0.756282 0.756282C0.592187 0.920376 0.5 1.14294 0.5 1.375M16.25 1.375L9.495 7.00387C9.18055 7.26579 8.78424 7.40922 8.375 7.40922C7.96576 7.40922 7.56945 7.26579 7.255 7.00387L0.5 1.375" stroke="white" stroke-linecap="round" stroke-linejoin="round"/>
</svg>
